<svg width="528" height="522" xmlns="http://www.w3.org/2000/svg" xmlns:xlink="http://www.w3.org/1999/xlink" xml:space="preserve" overflow="hidden"><defs><clipPath id="clip0"><rect x="1562" y="238" width="528" height="522"/></clipPath></defs><g clip-path="url(#clip0)" transform="translate(-1562 -238)"><path d="M1825.5 240C1680.43 240 1563 355.645 1563 498.5 1563 641.355 1680.43 757 1825.5 757 1970.57 757 2088 641.355 2088 498.5 2088 355.645 1970.57 240 1825.5 240ZM1825.5 280.816C1947.08 280.816 2046.55 378.774 2046.55 498.5 2046.55 618.226 1947.08 716.184 1825.5 716.184 1703.92 716.184 1604.45 618.226 1604.45 498.5 1604.45 378.774 1703.92 280.816 1825.5 280.816" fill="#D9D9D9" fill-rule="evenodd" fill-opacity="1"/><path d="M1718 605 1869.87 543.742 1932 394 1780.13 456.619 1718 605ZM1825.69 485.206C1833.97 485.206 1839.5 490.652 1839.5 498.82 1839.5 506.987 1833.97 512.432 1825.69 512.432 1817.41 512.432 1811.88 506.987 1811.88 498.82 1811.88 490.652 1817.41 485.206 1825.69 485.206" fill="#027FE9" fill-rule="evenodd" fill-opacity="1"/></g></svg>