<svg xmlns="http://www.w3.org/2000/svg" id="logo" viewBox="0 0 727.37 115.2">
    <defs>
        <clipPath id="clip-path" transform="translate(-6835.15 -7080)">
            <path d="M6835.15 7080h727.37v115.2h-727.37z" style="fill:none" />
        </clipPath>
        <style>
            .cls-2 {
                fill: #055b95
            }

            .cls-3 {
                fill: #055b95
            }
        </style>
    </defs>
    <path d="M477.89 115.2h2.9V0h-2.9v115.2z" class="cls-2" />
    <path d="M477.9 115.2h2.9V0h-2.9v115.2z" class="cls-2" />
    <path
        d="M100.08.01 72.13 71.99 43.91.01H21.58L0 115.19h23.03L36.7 43.07l26.65 72.12h17.29l26.65-72.12 13.67 72.12h23.73L122.4.01h-22.32zM150.45 115.19h21.58V.01h-21.58v115.18zM179.1.01v18.7h25.35v96.48h21.45V18.71h25.34V.01H179.1z"
        class="cls-3" />
    <g style="clip-path:url(#clip-path)">
        <path
            d="M279.85 115.2h-21.58V0h51.25q3.16 0 10.37 2t14.41 9.49q7.18 7.49 7.17 21.59 0 14.69-7.76 22.17-7.77 7.64-15.68 9.64c-5.27 1.45-9.17 2.18-11.67 2.18l38.31 48.09h-25.94l-35.12-47.53V46.89l21.45-.14h1.16a14.9 14.9 0 0 0 8.92-3.31 12.26 12.26 0 0 0 4.89-10.36 13.14 13.14 0 0 0-4-9.92q-4.16-3.77-10.93-3.76h-25.25v95.76ZM344.71 0h66.65v18.7H366.3v29.53h44.64v18.7H366.3V96.5h45.06v18.7h-66.65V0z"
            class="cls-3" />
    </g>
    <path
        d="M604.85 36.63 591.4 40.8c-2.46-6.51-7.37-10-13.77-10-6.94 0-11 3-11 8.54s7.47 8.65 16.23 11.85c19 6.94 23.48 14.52 23.48 23.7 0 15.38-9.71 23.6-26.9 23.6-12.92 0-24.66-7.26-28.93-18.26l12.17-5.34c4 8.44 9.18 12.07 16.76 12.07 8.44 0 13-3.63 13-10.14s-6.73-9.72-19-14.52c-11.85-4.59-20.71-10.36-20.71-21.46 0-12.92 10.68-21.57 24.88-21.57 12.49 0 22.74 6.41 27.22 17.4ZM640.66 35l-9.07 33.53h17.93L640.85 35Zm9.08-14.84 21.88 77.19H657l-4.28-16.65h-24.34l-4.59 16.65h-14.62l22.2-77.19ZM727.37 20.3v12.39H693v18.36h25.73v12.39H693v33.95h-14.74V20.3h49.11z"
        class="cls-2" />
</svg>